<!-- Generator: Adobe Illustrator 19.0.0, SVG Export Plug-In  -->
<svg version="1.1"
	 xmlns="http://www.w3.org/2000/svg" xmlns:xlink="http://www.w3.org/1999/xlink" xmlns:a="http://ns.adobe.com/AdobeSVGViewerExtensions/3.0/"
	 x="0px" y="0px" width="12.1px" height="12.1px" viewBox="0 0 16.1 16.1" style="enable-background:new 0 0 16.1 16.1;"
	 xml:space="preserve">
<style type="text/css">
	.st0{fill:#FFFFFF;}
</style>
<defs>
</defs>
<g>
	<g>
		<path class="st0" d="M4.7,7.6c-0.2-0.2-0.6-0.2-0.8,0c-0.2,0.2-0.2,0.6,0,0.8L6.6,11c0.1,0.1,0.3,0.2,0.4,0.2c0,0,0,0,0,0
			c0.2,0,0.3-0.1,0.4-0.2L14,3.1c0.2-0.2,0.2-0.6-0.1-0.8c-0.2-0.2-0.6-0.2-0.8,0.1L6.9,9.8L4.7,7.6L4.7,7.6z"/>
		<path class="st0" d="M12.3,1.2c-3.2-2-7.3-1.5-10,1.1c-3.1,3.1-3.1,8.3,0,11.4c1.6,1.6,3.6,2.4,5.7,2.4c2.1,0,4.1-0.8,5.7-2.4
			c2.7-2.7,3.1-6.8,1.1-10c-0.2-0.3-0.5-0.3-0.8-0.2c-0.3,0.2-0.3,0.5-0.2,0.8c1.7,2.8,1.3,6.3-1,8.6c-2.7,2.7-7.1,2.7-9.8,0
			c-2.7-2.7-2.7-7.1,0-9.8c2.3-2.3,5.8-2.7,8.6-1C12,2.4,12.3,2.3,12.5,2C12.7,1.7,12.6,1.4,12.3,1.2L12.3,1.2z"/>
	</g>
</g>
</svg>
