<!-- Generator: Adobe Illustrator 19.0.0, SVG Export Plug-In  -->
<svg version="1.1"
	 xmlns="http://www.w3.org/2000/svg" xmlns:xlink="http://www.w3.org/1999/xlink" xmlns:a="http://ns.adobe.com/AdobeSVGViewerExtensions/3.0/"
	 x="0px" y="0px" width="260.4px" height="58px" viewBox="0 0 260.4 58" style="enable-background:new 0 0 260.4 58;"
	 xml:space="preserve">
<style type="text/css">
	.st0{fill:#2B9969;}
	.st1{fill:#1879BF;}
</style>
<defs>
</defs>
<g>
	<g>
		<path class="st0" d="M31.9,0.2C40.8,3.3,46.7,11.7,46,21.6c-0.9,12.5-12.1,22.6-25,22.6c-10.4,0-18.7-6.6-21-15.7
			c1.7,10.5,10.9,18.3,22.6,18.3c13.6,0,25.4-10.6,26.4-23.6C49.8,12,42.5,2.7,31.9,0.2z"/>
	</g>
	<path class="st0" d="M21.5,42.9c2.4-0.4,5.7-2.5,6.4-7.7c0.9-7.4-15-8.4-13.6-21.2H2.2L0,27.9h15L13,42.9
		C15.2,43.2,18.5,43.3,21.5,42.9z"/>
	<path class="st0" d="M23.5,0.3c-2.4,0.3-5.7,2.5-6.4,7.6c-0.9,7.4,15,8.5,13.6,21.2h12.1l2.2-13.8h-15l2.1-15
		C29.8,0,26.5-0.2,23.5,0.3z"/>
</g>
<path class="st1" d="M77,30.1H53.9v-1c1.7-0.3,2.6-0.4,3.3-3l5.1-18.7C62.4,7,62.8,5.7,62.8,5c0-1.3-0.5-1.4-3-1.7V2.2h22.5
	l-1.8,7.9l-1.1-0.2c0-3.1,0-6.4-7.9-6.4c-1.7,0-2.1,0.7-2.4,1.8l-2.5,9.3c6.1,0.1,6.7-1,8.5-4.4l1.2,0.2l-3.1,11.4l-1.2-0.2
	c0.1-0.7,0.2-1.2,0.2-1.7c0-3-1.3-3.9-6-3.9l-2.3,8.7c-0.2,0.8-0.6,2.1-0.6,2.5c0,0.9,0.4,1.5,2.7,1.5c5,0,9.7-1.7,12.5-6.9l1,0.2
	L77,30.1z"/>
<path class="st1" d="M99.3,17.7l-0.9-0.2c0.1-0.3,0.1-0.6,0.1-0.9c0-2.7-1.3-4.4-3.7-4.4c-4.4,0-7.7,7.1-7.7,12c0,5,3.6,5,4,5
	c2.2,0,3.9-0.7,6-3.3l0.8,0.6c-1.4,2.1-3.9,4.1-7.5,4.1c-3.6,0-7.5-2.1-7.5-7.1c0-6.1,4.6-12.3,11.3-12.3c2.4,0,3.9,0.8,4.6,0.8
	c0.6,0,0.8-0.4,1.1-0.8h0.8L99.3,17.7z"/>
<path class="st1" d="M120.4,12.3c-1.4,0.3-1.7,0.4-2.8,4.2l-1.8,6.3c-1.1,3.8-2.2,7.7-8,7.7c-2.9,0-6-1.4-6-4.7
	c0-2.4,2.9-11.1,2.9-12.4c0-0.9-0.3-0.9-2-1.1v-0.7h8.6v0.7c-1.4,0.1-2.1,0.2-2.6,2l-2.2,8.3c-0.6,2.2-0.8,2.8-0.8,3.8
	c0,1.3,0.9,2.7,3.4,2.7c3.9,0,5-3.8,5.8-6.7l1.6-5.8c0.2-0.6,0.5-1.9,0.5-2.7c0-1.4-1.4-1.5-2.2-1.6v-0.7h5.7V12.3z"/>
<path class="st1" d="M122.5,23.2l4.1-6.7l1,6.7H122.5z M134.4,29.4c-1.7-0.2-2-0.2-2.3-2.4l-2.6-15.7h-0.7l-10.2,16.2
	c-1,1.6-1.5,1.7-2.3,1.9v0.7h5.4v-0.7c-0.5,0-1.8,0-1.8-1c0-0.5,0.2-1,0.4-1.3l1.6-2.8h5.9c0.4,3,0.4,3,0.4,3.5
	c0,1.3-0.9,1.4-2.2,1.5v0.7h8.4V29.4z"/>
<path class="st1" d="M137.5,21.5l1.2,0.1c0.3,7.2,4.7,7.8,6.5,7.8c4.7,0,5.2-4.4,5.2-5.3c0-5.4-10.2-7.7-10.2-14.4
	c0-4.2,2.9-8.2,8.5-8.2c2.4,0,4.8,1.3,6,1.3c0.2,0,1.3,0,1.8-1.1h1.2l-1.7,8.4L155,9.9c-0.2-2.3-0.8-6.9-5.5-6.9
	c-4.2,0-4.3,4-4.3,4.4c0,3.2,2.7,3.8,6.5,7.4c1.9,1.8,3.7,4.2,3.7,7.1c0,5.5-3.3,8.8-9.8,8.8c-3.1,0-5.5-1.4-6.7-1.4
	c-1,0-1.2,0.5-1.7,1.4H136L137.5,21.5z"/>
<path class="st1" d="M162.8,23.2l4.1-6.7l1,6.7H162.8z M174.7,29.4c-1.7-0.2-1.9-0.2-2.3-2.4l-2.6-15.7H169l-10.2,16.2
	c-1,1.6-1.5,1.7-2.3,1.9v0.7h5.4v-0.7c-0.5,0-1.8,0-1.8-1c0-0.5,0.2-1,0.4-1.3l1.6-2.8h5.9c0.4,3,0.4,3,0.4,3.5
	c0,1.3-0.9,1.4-2.2,1.5v0.7h8.4V29.4z"/>
<path class="st1" d="M190.6,24.5l2.2-7.9c0.2-0.6,0.5-1.9,0.5-2.6c0-1.4-1.2-1.6-2.2-1.7v-0.7h5.7v0.7c-1.5,0.3-1.7,0.4-2.8,4.2
	l-3.9,13.9h-0.8l-7.1-15.1l-2.7,9.8c-0.2,0.6-0.5,1.9-0.5,2.5c0,1.4,1.1,1.6,2.2,1.7v0.7h-5.7v-0.7c1.4-0.3,1.7-0.4,2.8-4.2
	l3.3-11.3c-0.5-1.2-0.8-1.4-2.3-1.5v-0.7h5.4L190.6,24.5z"/>
<path class="st1" d="M202.9,30.1h-8.1v-0.7c1.2-0.2,1.8-0.4,2.2-2l3.4-12.4c0,0,0.3-1.2,0.3-1.6c0-0.9-0.3-0.9-2-1.1v-0.7h8.2v0.7
	c-1,0.1-1.8,0.2-2.3,2l-3.1,11.6c-0.2,0.7-0.5,1.8-0.5,2.3c0,1,0.6,1.1,2,1.2V30.1z"/>
<path class="st1" d="M222.8,16.9l-0.8,0c-0.1-4.1-2.3-4.2-3.8-4.3l-3.9,14c-0.1,0.5-0.3,1.2-0.3,1.6c0,1.1,0.7,1.1,2.3,1.2v0.7h-9.1
	v-0.7c1.2,0.1,2.4-0.1,2.9-2l4.1-14.8c-2.6,0-4.6,1.1-6,3.9l-0.7-0.2l1.1-4.7h15.2L222.8,16.9z"/>
<path class="st1" d="M225.1,23.2l4.1-6.7l1,6.7H225.1z M237,29.4c-1.7-0.2-2-0.2-2.3-2.4L232,11.3h-0.7l-10.2,16.2
	c-1,1.6-1.5,1.7-2.3,1.9v0.7h5.4v-0.7c-0.5,0-1.8,0-1.8-1c0-0.5,0.2-1,0.4-1.3l1.6-2.8h5.9c0.4,3,0.4,3,0.4,3.5
	c0,1.3-0.9,1.4-2.2,1.5v0.7h8.4V29.4z"/>
<path class="st1" d="M240.1,21.5l1.2,0.1c0.3,7.2,4.7,7.8,6.4,7.8c4.7,0,5.2-4.4,5.2-5.3c0-5.4-10.2-7.7-10.2-14.4
	c0-4.2,3-8.2,8.5-8.2c2.4,0,4.8,1.3,6,1.3c0.2,0,1.3,0,1.8-1.1h1.2l-1.7,8.4l-1.1-0.1c-0.2-2.3-0.8-6.9-5.5-6.9
	c-4.3,0-4.3,4-4.3,4.4c0,3.2,2.7,3.8,6.5,7.4c1.9,1.8,3.7,4.2,3.7,7.1c0,5.5-3.3,8.8-9.8,8.8c-3.1,0-5.5-1.4-6.7-1.4
	c-1,0-1.2,0.5-1.7,1.4h-1.2L240.1,21.5z"/>
<rect x="55.5" y="36.4" class="st1" width="202.5" height="2.3"/>
<g>
	<path class="st1" d="M56,53.5c0,2.7,1.5,3.7,3.2,3.7c1.2,0,1.8-0.2,2.3-0.5l0.2,0.6c-0.3,0.2-1.2,0.5-2.6,0.5
		c-2.4,0-3.9-1.7-3.9-4.2c0-2.8,1.6-4.5,3.8-4.5c2.7,0,3.3,2.6,3.3,3.8c0,0.2,0,0.3,0,0.5H56z M61.3,52.9c0-1.2-0.5-2.9-2.5-2.9
		c-1.8,0-2.6,1.6-2.8,2.9H61.3z"/>
	<path class="st1" d="M67.6,56.7c0.5,0.3,1.1,0.6,1.9,0.6c1.3,0,1.9-0.7,1.9-1.6c0-0.9-0.6-1.4-1.8-1.9c-1.4-0.5-2.1-1.3-2.1-2.3
		c0-1.2,1-2.3,2.6-2.3c0.8,0,1.4,0.2,1.8,0.5l-0.3,0.7C71.4,50.3,70.8,50,70,50c-1.1,0-1.6,0.7-1.6,1.4c0,0.9,0.6,1.2,1.7,1.7
		c1.4,0.5,2.2,1.2,2.2,2.5c0,1.4-1.1,2.4-2.8,2.4c-0.8,0-1.6-0.2-2.1-0.6L67.6,56.7z"/>
	<path class="st1" d="M85.5,45.4h0.8V51h0c0.6-1.1,1.6-1.8,3.1-1.8c2.1,0,3.6,1.8,3.6,4.3c0,3-1.9,4.5-3.7,4.5c-1.4,0-2.3-0.6-3-1.7
		h0l-0.1,1.5h-0.7c0-0.6,0.1-1.3,0.1-1.9V45.4z M86.3,54.6c0,0.2,0,0.4,0.1,0.6c0.4,1.3,1.4,2.1,2.7,2.1c1.9,0,3-1.6,3-3.7
		c0-1.9-1-3.6-2.9-3.6c-1.2,0-2.4,0.8-2.8,2.2c-0.1,0.2-0.1,0.4-0.1,0.7V54.6z"/>
	<path class="st1" d="M105.2,55.8c0,0.7,0,1.4,0.1,2h-0.8l-0.1-1.5h0c-0.4,0.8-1.4,1.7-2.8,1.7c-1.1,0-2.8-0.5-2.8-3.7v-4.8h0.8v4.7
		c0,1.8,0.6,3.1,2.2,3.1c1.2,0,2.1-0.9,2.5-1.7c0.1-0.3,0.2-0.6,0.2-0.9v-5.2h0.8V55.8z"/>
	<path class="st1" d="M111.8,53.5c0,2.7,1.5,3.7,3.2,3.7c1.2,0,1.8-0.2,2.3-0.5l0.2,0.6c-0.3,0.2-1.2,0.5-2.6,0.5
		c-2.4,0-3.9-1.7-3.9-4.2c0-2.8,1.6-4.5,3.8-4.5c2.7,0,3.2,2.6,3.2,3.8c0,0.2,0,0.3,0,0.5H111.8z M117.1,52.9c0-1.2-0.5-2.9-2.5-2.9
		c-1.8,0-2.6,1.6-2.8,2.9H117.1z"/>
	<path class="st1" d="M123.7,51.5c0-0.8,0-1.3-0.1-2h0.8l0.1,1.5h0c0.5-0.9,1.5-1.7,2.9-1.7c0.8,0,2.9,0.4,2.9,3.5v5h-0.8v-4.9
		c0-1.5-0.6-2.9-2.3-2.9c-1.2,0-2.2,0.8-2.5,1.9c-0.1,0.2-0.1,0.5-0.1,0.7v5.2h-0.8V51.5z"/>
	<path class="st1" d="M139.8,58c-2.2,0-3.8-1.7-3.8-4.3c0-2.8,1.9-4.4,3.9-4.4c2.3,0,3.9,1.7,3.9,4.3C143.8,56.7,141.7,58,139.8,58
		L139.8,58z M139.9,57.3c1.7,0,3.1-1.6,3.1-3.7c0-1.5-0.9-3.6-3.1-3.6c-2.1,0-3.1,1.9-3.1,3.7C136.8,55.7,138.1,57.3,139.9,57.3
		L139.9,57.3z"/>
	<path class="st1" d="M157.2,53.5c0,2.7,1.5,3.7,3.2,3.7c1.2,0,1.8-0.2,2.3-0.5l0.2,0.6c-0.3,0.2-1.2,0.5-2.6,0.5
		c-2.4,0-3.9-1.7-3.9-4.2c0-2.8,1.6-4.5,3.8-4.5c2.7,0,3.2,2.6,3.2,3.8c0,0.2,0,0.3,0,0.5H157.2z M162.5,52.9c0-1.2-0.5-2.9-2.5-2.9
		c-1.8,0-2.6,1.6-2.8,2.9H162.5z"/>
	<path class="st1" d="M168.8,56.7c0.5,0.3,1.1,0.6,1.9,0.6c1.3,0,1.9-0.7,1.9-1.6c0-0.9-0.6-1.4-1.8-1.9c-1.4-0.5-2.1-1.3-2.1-2.3
		c0-1.2,1-2.3,2.6-2.3c0.8,0,1.4,0.2,1.8,0.5l-0.3,0.7c-0.3-0.2-0.8-0.5-1.7-0.5c-1.1,0-1.6,0.7-1.6,1.4c0,0.9,0.6,1.2,1.7,1.7
		c1.4,0.5,2.2,1.2,2.2,2.5c0,1.4-1.1,2.4-2.8,2.4c-0.8,0-1.6-0.2-2.1-0.6L168.8,56.7z"/>
	<path class="st1" d="M180.4,47.6v1.8h2.4v0.7h-2.4v5.4c0,1.1,0.3,1.7,1.2,1.7c0.4,0,0.7-0.1,1-0.1l0.1,0.6
		c-0.3,0.1-0.7,0.2-1.2,0.2c-0.6,0-1.1-0.2-1.4-0.6c-0.4-0.4-0.5-1.1-0.5-2v-5.3h-1.4v-0.7h1.4v-1.5L180.4,47.6z"/>
	<path class="st1" d="M193.5,55.8c0,0.7,0,1.3,0.1,2h-0.8l-0.1-1.2h0c-0.4,0.6-1.3,1.4-2.7,1.4c-1.7,0-2.5-1.2-2.5-2.3
		c0-1.9,1.7-3.1,5.1-3.1v-0.2c0-0.8-0.2-2.5-2.1-2.5c-0.7,0-1.5,0.2-2.1,0.6l-0.3-0.6c0.8-0.5,1.7-0.7,2.4-0.7
		c2.4,0,2.9,1.8,2.9,3.3V55.8z M192.6,53.3c-1.8-0.1-4.2,0.2-4.2,2.2c0,1.2,0.8,1.7,1.7,1.7c1.4,0,2.2-0.9,2.5-1.7
		c0.1-0.2,0.1-0.4,0.1-0.5V53.3z"/>
	<path class="st1" d="M199.8,52c0-0.8,0-1.7-0.1-2.5h0.8l0,1.7h0.1c0.4-1.1,1.2-1.9,2.4-1.9c0.1,0,0.2,0,0.3,0v0.8
		c-0.1,0-0.2,0-0.4,0c-1.1,0-2,1-2.2,2.3c0,0.2-0.1,0.5-0.1,0.8v4.6h-0.8V52z"/>
	<path class="st1" d="M215.7,56.7c0.5,0.3,1.1,0.6,1.9,0.6c1.3,0,1.9-0.7,1.9-1.6c0-0.9-0.6-1.4-1.8-1.9c-1.4-0.5-2.1-1.3-2.1-2.3
		c0-1.2,1-2.3,2.6-2.3c0.8,0,1.4,0.2,1.8,0.5l-0.3,0.7c-0.3-0.2-0.8-0.5-1.7-0.5c-1.1,0-1.6,0.7-1.6,1.4c0,0.9,0.6,1.2,1.7,1.7
		c1.4,0.5,2.2,1.2,2.2,2.5c0,1.4-1.1,2.4-2.8,2.4c-0.8,0-1.6-0.2-2.1-0.6L215.7,56.7z"/>
	<path class="st1" d="M231.4,55.8c0,0.7,0,1.3,0.1,2h-0.8l-0.1-1.2h0c-0.4,0.6-1.3,1.4-2.7,1.4c-1.7,0-2.5-1.2-2.5-2.3
		c0-1.9,1.7-3.1,5.1-3.1v-0.2c0-0.8-0.2-2.5-2.1-2.5c-0.7,0-1.5,0.2-2.1,0.6L226,50c0.8-0.5,1.7-0.7,2.4-0.7c2.4,0,2.9,1.8,2.9,3.3
		V55.8z M230.5,53.3c-1.8-0.1-4.2,0.2-4.2,2.2c0,1.2,0.8,1.7,1.7,1.7c1.4,0,2.2-0.9,2.5-1.7c0.1-0.2,0.1-0.4,0.1-0.5V53.3z"/>
	<path class="st1" d="M237.7,51.5c0-0.8,0-1.3-0.1-2h0.8l0.1,1.5h0c0.5-0.9,1.5-1.7,2.9-1.7c0.8,0,2.9,0.4,2.9,3.5v5h-0.8v-4.9
		c0-1.5-0.6-2.9-2.3-2.9c-1.2,0-2.2,0.8-2.5,1.9c-0.1,0.2-0.1,0.5-0.1,0.7v5.2h-0.8V51.5z"/>
	<path class="st1" d="M253.8,58c-2.2,0-3.8-1.7-3.8-4.3c0-2.8,1.9-4.4,3.9-4.4c2.3,0,3.9,1.7,3.9,4.3C257.8,56.7,255.6,58,253.8,58
		L253.8,58z M253.8,57.3c1.7,0,3.1-1.6,3.1-3.7c0-1.5-0.9-3.6-3.1-3.6c-2.1,0-3.1,1.9-3.1,3.7C250.8,55.7,252.1,57.3,253.8,57.3
		L253.8,57.3z"/>
</g>
</svg>
