<!-- Generator: Adobe Illustrator 19.0.0, SVG Export Plug-In  -->
<svg version="1.1"
	 xmlns="http://www.w3.org/2000/svg" xmlns:xlink="http://www.w3.org/1999/xlink" xmlns:a="http://ns.adobe.com/AdobeSVGViewerExtensions/3.0/"
	 x="0px" y="0px" width="337.1px" height="321.2px" viewBox="0 0 337.1 321.2" style="enable-background:new 0 0 337.1 321.2;"
	 xml:space="preserve">
<style type="text/css">
	.st0{opacity:0.12;}
	.st1{fill:#B8B8B8;}
</style>
<defs>
</defs>
<g class="st0">
	<g>
		<path class="st1" d="M219.5,1.5c61.3,21.2,101.9,78.8,96.9,146.9C310,234.3,233,303.9,144.6,303.9C73,303.9,15.8,258.4,0,195.6
			c11.9,71.9,74.9,125.6,155.2,125.6c93.5,0,174.7-72.6,181.5-162.1C342.5,82.8,292.3,18.8,219.5,1.5z"/>
	</g>
	<path class="st1" d="M147.6,295.1c16.4-2.6,39.4-17.4,43.8-52.7c6.2-50.9-103.4-58-93.2-145.6h-83L0.3,191.6h103.3L89.5,295.1
		C104.6,297.4,127,297.9,147.6,295.1z"/>
	<path class="st1" d="M161.7,2c-16.5,2.2-39.5,17.1-44,52.4c-6.2,51.1,103.4,58.2,93.3,145.9h82.9l14.9-94.8H205.6L219.7,2
		C204.8-0.3,182.2-1.1,161.7,2z"/>
</g>
</svg>
